<?xml version="1.0" standalone="no"?>
<!DOCTYPE svg PUBLIC "-//W3C//DTD SVG 20010904//EN"
 "http://www.w3.org/TR/2001/REC-SVG-20010904/DTD/svg10.dtd">
<svg version="1.0" xmlns="http://www.w3.org/2000/svg"
 width="100.000000pt" height="100.000000pt" viewBox="0 0 100.000000 100.000000"
 preserveAspectRatio="xMidYMid meet">
<metadata>
Created by potrace 1.11, written by Peter Selinger 2001-2013
</metadata>
<g transform="translate(0.000000,100.000000) scale(0.100000,-0.100000)"
fill="#000000" stroke="none">
<path d="M35 625 c0 -184 3 -335 7 -335 4 0 27 12 52 27 l44 27 -1 208 c0 114
1 210 4 212 3 3 115 -59 338 -188 22 -12 30 -10 110 37 47 27 101 58 119 68
18 11 66 38 105 61 40 22 91 52 113 65 l41 23 2 65 c1 36 -1 65 -4 65 -4 0
-93 -50 -198 -111 -106 -62 -207 -120 -226 -131 -18 -10 -41 -16 -49 -13 -9 3
-109 60 -222 125 -113 65 -212 121 -220 125 -13 5 -15 -36 -15 -330z"/>
<path d="M916 685 c-21 -12 -41 -27 -45 -33 -3 -6 -6 -103 -5 -216 0 -184 -1
-206 -15 -201 -9 4 -90 49 -180 102 -143 84 -166 94 -187 85 -52 -24 -430
-245 -440 -258 -11 -14 -12 -109 -1 -120 3 -4 32 10 64 29 32 19 78 46 103 59
25 14 100 58 168 97 l123 72 212 -122 c117 -67 222 -129 235 -137 l22 -14 -1
341 c-1 187 -4 341 -8 340 -3 0 -23 -11 -45 -24z"/>
</g>
</svg>
